<svg width="0" height="0" class="hidden">
    <symbol role="img" xmlns="http://www.w3.org/2000/svg" viewBox="0 0 24 24" id="codewars">
        <title>Codewars icon</title>
        <path d="M.76 12.2l-.08-.04c-.18-.1-.32-.25-.42-.44-.14-.26-.2-.5-.2-.75l.02-.13c0-.2.05-.38.14-.55l.08-.15c.04-.08.1-.15.15-.22.06-.07.07-.16.05-.24l-.05-.16c-.06-.2-.1-.4-.1-.6L.32 8.8c0-.22.06-.44.2-.6l.1-.13c.07-.1.18-.16.3-.2.1-.03.17-.13.18-.25l.02-.34c0-.27.13-.52.33-.7l.24-.18c.05-.05.1-.1.14-.18.05-.06.06-.14.05-.2-.02-.1 0-.13.05-.14.16.06.26.04.33-.04l.13-.17.36-.4c.1-.1.14-.28.08-.42l-.12-.26c-.02-.06 0-.13.05-.15.13 0 .22.05.26.13l.04.07c.06.12.2.18.3.13.22-.08.4-.1.57-.1h.32c.22 0 .4-.15.44-.38.04-.28.14-.5.28-.65.15-.17.32-.3.52-.4.26-.14.42-.34.47-.6.07-.32.24-.55.47-.7l.76-.43.22-.13c.13-.08.25-.18.35-.3l.2-.24c.1-.1.2-.17.32-.2.1-.03.24-.05.36-.04l.4.03c.2 0 .36.05.52.12l.1.05c.1.04.2.02.25-.05L10 .7l.43-.45c.1-.1.22-.14.35-.12.13.02.26.07.38.13.18.1.33.14.5.14h.1c.22 0 .44.03.66.08l.15.04c.15.04.3-.02.4-.14.03-.05.1-.06.14-.02.03.02.04.04.05.07.02.2.14.35.3.4l.16.05c.17.05.32.16.42.3.1.15.22.3.36.4l.1.1c.1.1.24.14.38.13h.59c.24 0 .47.04.7.14.22.1.45.12.66.04.22-.07.45-.1.68-.07l.43.07c.2.02.4.12.52.27l.05.05c.1.1.2.23.3.37.06.13.2.2.34.2h.62c.15 0 .3.03.42.1.13.1.24.2.34.3l.1.13c.12.14.18.33.17.53 0 .16.12.3.28.3l.2.02c.14 0 .26.1.33.23l.1.2.26.58c.04.1.05.2.04.28 0 .1.03.18.1.22l.1.07c.13.1.2.25.18.42l-.07.47-.02.2c-.02.1.03.23.12.3.15.1.22.23.23.38v.2c0 .1-.02.22-.1.3-.06.08-.1.18-.1.3l.03.23c0 .16.1.3.2.4.14.1.22.26.24.42.04.25.05.45.05.65v.23c0 .08 0 .16.03.24.02.07.07.14.13.18l.2.15c.2.13.34.3.42.53.1.22.13.45.13.68v.08c0 .18-.02.37-.08.54-.05.18-.04.35.03.5.08.14.13.3.15.47.04.2.02.4-.05.56l-.02.07c-.05.12-.13.23-.23.32-.1.1-.2.16-.26.23-.06.06-.1.16-.07.25l.03.14c.05.2.05.4 0 .58v.08c-.04.15-.1.28-.16.4-.07.13-.17.23-.3.3l-.15.1c-.07.04-.12.13-.12.22 0 .1-.04.2-.1.26l-.15.2c-.1.13-.23.24-.37.3-.14.1-.26.2-.35.3-.1.12-.18.26-.22.4-.04.18-.18.28-.33.28h-.54c-.14 0-.27.1-.33.22-.07.16-.14.27-.23.37-.1.1-.16.22-.2.36-.02.12-.12.2-.22.16-.13-.06-.26 0-.32.1-.12.2-.24.35-.37.48l-.07.06c-.13.1-.3.18-.45.18-.18 0-.27.08-.3.2-.03.1-.05.23-.06.34-.02.12-.06.23-.1.33l-.05.06c-.1.15-.18.3-.28.43l-.04.06c-.13.17-.3.3-.5.35-.24.08-.45.1-.66.1h-.14c-.1 0-.2.06-.27.16l-.06.1-.06.12-.13.22c-.1.18-.25.3-.45.36-.2.05-.43.07-.64.06l-.16-.02c-.14 0-.27-.04-.4-.1-.1-.04-.24 0-.3.1-.1.14-.22.22-.35.26l-.3.1c-.2.05-.42.05-.63 0l-.16-.05c-.1 0-.2-.05-.28-.1-.1-.05-.2-.07-.3-.06l-.13.02c-.2.02-.38 0-.56-.05l-.27-.06c-.12-.04-.23-.12-.3-.23-.05-.1-.16-.18-.3-.2H9.9c-.2-.03-.38-.1-.5-.25L9 22.5l-.14-.12-.22-.16-.13-.1c-.15-.1-.33-.18-.52-.2l-.6-.1c-.06 0-.1-.02-.16-.03L7 21.74c-.1-.02-.2-.1-.27-.2-.06-.1-.17-.14-.27-.1-.2.08-.36.1-.52.13H5.8c-.26.02-.5-.02-.74-.13-.24-.1-.4-.25-.55-.44-.12-.17-.3-.3-.52-.34l-.28-.06c-.2-.04-.4-.12-.58-.24-.2-.14-.3-.27-.38-.43-.08-.15-.13-.32-.14-.5v-.08c-.02-.2-.16-.38-.35-.43-.23-.07-.4-.17-.55-.3-.14-.13-.22-.32-.22-.52l.02-.44c0-.17-.05-.32-.17-.43-.12-.12-.2-.27-.2-.43l-.03-.36c-.02-.26-.07-.52-.13-.78-.06-.23.03-.46.22-.57l.07-.05c.1-.07.14-.2.08-.32l-.08-.1c-.1-.1-.2-.17-.3-.2-.08-.02-.1-.1-.1-.15l.1-.12c.06-.07.05-.18 0-.24-.08-.08-.12-.18-.13-.28l-.02-.7c0-.14.02-.28.06-.42.04-.12 0-.26-.12-.32zm9.9-1.32c.07-.07.06-.2 0-.25-.1-.08-.17-.17-.23-.27l-.1-.16c-.07-.13-.16-.24-.26-.34l-.02-.02c-.1-.08-.17-.18-.23-.3-.05-.1-.05-.2 0-.3l.06-.1c.06-.1.1-.24.1-.36v-.04c0-.1-.04-.2-.1-.3-.04-.08-.08-.18-.1-.28V8.1c-.03-.12 0-.25.08-.35.08-.13.14-.25.17-.4v-.02c.04-.1.02-.23-.04-.33s-.08-.2-.04-.32l.07-.2c.06-.18.15-.34.27-.48l.14-.15.1-.12.06-.06c.06-.06.07-.16.02-.24-.05-.1-.08-.2-.06-.3l.02-.14c.03-.2.1-.4.23-.56l.04-.04c.15-.2.34-.33.56-.4l.27-.1c.12-.04.2-.17.2-.3 0-.16.05-.3.14-.43l.05-.05c.1-.17.22-.34.3-.52l.07-.13c.02-.03.03-.07.03-.1 0-.17-.1-.32-.26-.33L11.76 2c-.25-.02-.5 0-.74 0l-.85.1c-.13 0-.23.1-.24.24 0 .14-.1.26-.22.3l-.36.1-.1.03-.3.1c-.22.07-.4.23-.5.45l-.08.13c-.1.22-.27.4-.48.53-.2.13-.3.34-.32.58v.1c-.02.2-.08.4-.2.54l-.05.08c-.08.1-.1.23-.05.34.05.12.08.25.07.38v.53c0 .14-.1.26-.2.3-.14.05-.23.16-.27.3l-.05.2c-.04.2.03.4.2.52.16.12.26.3.3.52v.18c.03.2.14.4.32.5.18.12.32.3.4.5l.05.16c.08.22.26.35.46.37h.06c.18 0 .34.1.44.26.1.16.26.27.44.3l.28.08c.17.05.33.14.46.27l.02.02c.1.08.26.07.35-.04l.07-.08zm1.14-.92c.1.06.2.03.24-.06l.03-.05c.07-.14.16-.28.26-.4l.2-.3c.03 0 .04-.02.05-.04l.24-.32c.1-.1.22-.17.36-.17.13 0 .24-.07.3-.2.04-.14.1-.27.22-.38l.05-.06c.1-.1.2-.15.3-.2.13-.02.25-.04.37-.04h.3c.12 0 .22-.05.28-.15.06-.1.15-.17.25-.22l.1-.04c.16-.07.34-.12.52-.14l.2-.02c.12 0 .25 0 .37.07.1.07.23.06.33-.02l.07-.04c.15-.1.32-.18.5-.2h.02c.2-.04.38-.04.58-.03h.1c.2.03.37.1.5.25l.03.04c.1.1.26.18.4.18h.17c.05 0 .1-.02.13-.07.03-.03.08-.06.13-.06h.1c.14 0 .27.04.4.08l.17.07c.16.05.33.1.5.12h.12c.08 0 .13-.05.13-.12 0-.1-.02-.2-.07-.28L20.68 7c-.08-.13-.14-.27-.2-.4l-.02-.05c-.05-.1-.05-.2 0-.3V6.2c.02-.08-.02-.17-.1-.2L20.28 6c-.16-.05-.3-.14-.4-.27l-.1-.1c-.1-.1-.16-.25-.2-.4-.05-.13-.16-.23-.3-.23h-.42c-.15-.02-.28-.1-.37-.22l-.04-.05c-.07-.1-.13-.22-.17-.34-.05-.1-.16-.16-.26-.13l-.12.04c-.2.07-.4.1-.6.08l-.16-.02c-.17 0-.33-.07-.46-.17l-.1-.07c-.08-.06-.16-.1-.25-.14-.1-.04-.18-.02-.24.05l-.05.06c-.1.1-.24.18-.38.2l-.54.03c-.1 0-.2.05-.27.12-.08.07-.17.12-.27.14h-.02c-.1 0-.2.07-.3.14v.02c-.1.1-.23.15-.36.15l-.04.02c-.12 0-.24 0-.36.03h-.12c-.17.03-.3.17-.34.35l-.04.23c-.03.16-.1.3-.2.43-.1.12-.22.2-.37.2h-.15-.02c-.1.02-.2.13-.18.25.02.17 0 .32-.03.47l-.04.17c-.04.15-.14.27-.27.32l-.06.03h-.02c-.06.04-.1.13-.05.2.06.1.08.2.07.3l-.03.32c0 .12-.05.23-.1.33-.06.1-.06.2-.02.3l.1.22c.05.1.06.2.03.32-.03.1-.05.2-.04.3 0 .1.06.2.14.24l.02.02zm7.9 7.23c.1.1.25.14.37.06l.2-.13c.1-.07.18-.17.22-.3v-.02l.1-.3.06-.1.04-.1.04-.07c.04-.08.1-.14.2-.17l.04-.02c.08-.02.13-.1.13-.18 0-.1.05-.18.1-.25l.08-.07.2-.26v-.02c.06-.08.1-.17.12-.27.02-.1 0-.2-.04-.3l-.02-.04c-.04-.1-.06-.17-.07-.26l-.03-.28-.03-.3c0-.1.04-.2.1-.3.07-.08.12-.18.16-.28v-.04l.02-.02c.02-.1-.03-.2-.12-.2-.1-.05-.2-.13-.23-.25l-.03-.06c-.05-.18-.08-.36-.08-.54l.02-.5v-.03c0-.17-.14-.3-.3-.3h-.02c-.2 0-.36-.06-.5-.2l-.08-.1-.2-.23-.26-.3c-.1-.14-.2-.26-.33-.38-.1-.1-.25-.2-.4-.22l-.2-.03c-.1-.02-.23-.07-.34-.14-.08-.06-.2-.04-.28.04l-.13.14-.06.04c-.07.02-.14-.02-.17-.1-.04-.12-.04-.26.02-.38v-.06c0-.07-.06-.12-.12-.1h-.16c-.18 0-.36-.02-.53-.1l-.1-.04c-.1-.05-.22-.08-.33-.08-.1 0-.2.02-.3.08l-.04.03c-.12.08-.26.12-.4.13h-.33c-.15 0-.3.05-.4.13-.13.08-.27.13-.42.16l-.27.04c-.12.03-.25.08-.36.17-.1.1-.24.16-.37.2l-.05.02c-.16.05-.3.15-.4.3l-.12.12c-.07.1-.07.22 0 .32.06.1.18.13.3.1l.15-.06c.08-.03.17 0 .24.04.06.05.15.08.24.07l.25-.03c.14 0 .28 0 .42.04.15.05.28.1.4.2s.25.14.4.16c.15.02.3.05.44.1l.1.02c.1.03.18.1.24.2.05.08.1.2.1.3v.03c0 .12.1.2.2.2h.06c.16 0 .33.02.5.07l.07.03c.1.04.2.1.27.2.08.1.13.2.16.3l.03.14c.03.15.04.3.04.46v.05c0 .1.07.2.18.24.1.02.22.06.33.12l.05.02c.13.08.26.18.36.3l.05.07c.13.15.2.34.2.53v.07c0 .15-.03.3-.08.44-.04.12 0 .26.13.3l.07.05c.15.06.28.17.38.3.1.15.14.32.14.5v.3c-.02.1-.05.18-.1.25s-.05.17 0 .24l.06.1zm-6.4-5.12h-.02c-.04 0-.06.05-.05.1l.04.2c.04.16.06.32.08.48.02.16.1.3.22.4h.04c.15.12.24.3.25.48v.5c-.02.1 0 .2.06.28l.05.05c.1.12.14.26.15.4l.03.55c0 .13-.08.24-.2.26l-.1.02c-.07 0-.1.08-.1.15 0 .08.03.17.06.25v.02c.03.1.04.2.03.3l-.04.27c-.04.2-.1.38-.2.56l-.07.12c-.05.1-.12.16-.2.2-.1.04-.17.12-.2.22l-.08.36c-.05.2-.14.4-.26.6h-.02c-.12.16-.27.3-.45.4l-.12.08-.3.15c-.1.04-.16.13-.18.24l-.05.33c-.03.2-.1.37-.24.5l-.13.15-.15.15L11 21c-.12.14-.3.2-.5.17l-.36-.07-.33-.04h-.09c-.04.04-.05.1-.02.16.07.12.18.2.3.2l.22.04c.1 0 .22.05.32.1.1.07.2.12.32.15h.02c.13.05.27.06.4.05l.15-.02c.17-.02.33 0 .47.06l.12.04c.05.02.13 0 .18-.05.06-.06.12-.1.2-.13l.08-.02c.13-.04.26-.06.4-.06h.08c.12 0 .23.02.33.08l.04.02c.07.03.15 0 .2-.06.03-.07.1-.14.17-.2l.25-.17.16-.1.08-.05c.1-.07.24-.1.36-.1l.36-.03c.14-.02.26-.12.3-.26.04-.15.1-.3.2-.43s.2-.24.3-.34c.13-.1.26-.15.4-.16h.08c.16-.03.28-.18.27-.34v-.02V18.77c.02-.1.06-.23.12-.33l.2-.3.08-.1c.06-.05.1-.12.17-.2l.1-.13c.06-.1.06-.23-.02-.32-.1-.1-.15-.24-.17-.38v-.04c-.02-.16-.02-.33.03-.5v-.05c.05-.13.12-.26.2-.38.08-.1.07-.24-.03-.32l-.17-.15c-.14-.12-.22-.3-.24-.48l-.02-.2c0-.06 0-.13-.02-.2l-.02-.15c-.02-.17-.12-.3-.26-.4l-.07-.02c-.1-.06-.2-.15-.28-.27-.08-.1-.12-.24-.15-.38l-.03-.17c0-.06-.04-.1-.1-.13l-.16-.05-.32-.1c-.1-.02-.2-.1-.27-.17h-.02c-.06-.08-.16-.08-.22-.02l-.1.1c-.02.03-.04.04-.07.03-.06 0-.1-.05-.08-.1.02-.16-.04-.32-.17-.42l-.13-.1-.3-.2c-.08-.03-.2 0-.24.1l-.04.06c0 .02-.03.03-.04.04-.04 0-.1 0-.1-.05l-.03-.05c-.03-.06-.1-.1-.16-.12zm-1.2 1l-.05-.05c-.05-.04-.1-.03-.15.02-.07.12-.13.25-.16.38v.02c-.03.13-.15.22-.27.2h-.1-.02c-.14 0-.25.12-.25.26 0 .18-.06.36-.17.5l-.06.06c-.1.13-.25.22-.4.27l-.08.02c-.1.03-.18.1-.2.22 0 .1-.06.2-.14.28l-.1.08c-.12.13-.3.2-.48.22l-.5.05c-.16 0-.3.1-.4.25-.1.15-.25.25-.4.27l-.22.02c-.16.02-.33.02-.5-.02l-.1-.02-.27-.07c-.1-.03-.18 0-.24.07l-.1.13c-.13.15-.32.22-.5.2l-.65-.08c-.1 0-.18-.05-.27-.1-.1-.06-.17-.13-.24-.2l-.25-.3c-.03-.02-.08-.03-.13-.02l-.14.06-.56.14c-.1.03-.23 0-.33-.06-.1-.08-.22-.1-.34-.1H3.2c-.12.03-.2.16-.16.28l.04.2c.03.1.02.22-.03.32s-.04.2.03.3l.06.08c.08.12.2.22.3.32.1.1.2.2.28.33l.15.27c.08.14.2.22.36.22.15 0 .3.05.42.15l.3.28c.08.07.2.08.28.02l.05-.02c.06 0 .1.04.1.1v.05c0 .13.1.25.23.3l.45.1c.16.05.32.1.47.2h.08c.08 0 .15-.07.14-.16v-.35c0-.1.04-.2.12-.24l.05-.02c.05.02.1.06.08.1v.17c0 .13.04.25.13.34.1.1.23.12.34.08.12-.05.24-.06.37-.05l.37.02c.18.02.35 0 .5-.07.18-.06.33-.14.47-.25l.06-.04.3-.27c.1-.1.23-.15.35-.15h.4c.2-.02.38-.2.4-.4l.04-.2c0-.13.06-.25.15-.35.1-.1.2-.16.3-.2l.12-.05c.17-.07.3-.22.36-.4l.06-.24c.05-.2.15-.4.3-.53l.02-.02c.12-.1.14-.3.06-.44l-.03-.07c-.07-.1-.08-.25-.03-.38.05-.14.1-.26.18-.38l.1-.14c.04-.08.04-.2-.02-.27-.06-.08-.1-.18-.1-.28l-.02-.14v-.34c.02-.1 0-.23-.03-.33l-.04-.12zm-1.43-.76v-.03c0-.1-.06-.16-.14-.16h-.26c-.1.02-.2.02-.28 0h-.45c-.23 0-.45-.04-.67-.1l-.24-.06-.2-.06-.45-.15c-.24-.07-.42-.23-.53-.45l-.05-.1c-.07-.15-.22-.23-.37-.2-.17 0-.34 0-.5-.08l-.12-.05c-.23-.1-.4-.3-.4-.57l-.04-.27c-.03-.14-.12-.27-.24-.32-.14-.06-.27-.14-.4-.23l-.05-.03c-.15-.12-.28-.28-.35-.47l-.02-.06c-.05-.16-.06-.33-.02-.5l.02-.06c.04-.13.05-.26.05-.4 0-.12-.05-.24-.14-.33l-.14-.13c-.16-.13-.26-.32-.27-.53-.02-.22-.02-.43.02-.64V6.3v-.03c0-.12-.1-.2-.2-.2H4.2c-.13 0-.24.08-.3.2-.05.14-.13.25-.22.36l-.04.05-.2.2-.1.1c-.1.1-.16.25-.18.4-.02.15-.06.3-.12.44l-.02.05c-.05.12-.13.23-.23.3-.1.08-.17.2-.17.32l-.02.46c0 .2-.03.4-.1.6l-.02.08c-.05.13 0 .27.12.33l.42.18.04.02c.03 0 .04.02.05.05.03.04 0 .1-.03.1l-.1.05c-.06.02-.1.08-.12.15l-.02.1v.02l-.1.56c-.02.08-.02.17-.02.26 0 .08.05.15.12.18l.22.1c.1.06.22.13.3.2l.1.08c.03.04.08.08.12.1l.04.04c.07.06.12.14.14.23l.1.45c0 .12.1.22.2.25l.16.05s.03 0 .05.02l.2.06c.16.05.3.14.42.26.12.1.24.23.34.37l.04.04c.08.1.2.15.32.12s.25-.04.38-.04h.15c.1 0 .23.03.34.1.1.06.23.1.35.15h.03c.12.05.25.03.35-.04.1-.08.23-.12.36-.12l.47.03c.1 0 .2-.02.25-.1h.02l.17-.16.05-.05c.08-.1.2-.14.32-.15h.45c.12 0 .23-.1.28-.2.05-.1.15-.18.27-.2l.2-.04c.08 0 .15-.07.18-.16.03-.1.08-.18.15-.24l.16-.16c.1-.1.15-.2.17-.32z"></path>
    </symbol>
    <symbol version="1.1" id="email" xmlns="http://www.w3.org/2000/svg" xmlns:xlink="http://www.w3.org/1999/xlink"
            x="0px" y="0px" xml:space="preserve" viewBox="0 0 512.004 512.004">
    <g>
      <g>
        <g>
          <path d="M506.394,92.79L363.119,228.172L506.394,419.19c3.477-6.955,5.611-14.656,5.611-22.955V115.745
				C512.004,107.468,509.85,99.745,506.394,92.79z"></path>
            <path d="M281.131,246.979L472.896,65.753c-4.075-1.045-8.256-1.749-12.651-1.749H51.755c-4.736,0-9.216,0.832-13.568,2.027
				l192.939,181.184C245.163,260.014,266.795,260.014,281.131,246.979z"></path>
            <path d="M310.118,278.273c-15.509,14.123-34.88,21.184-54.229,21.184c-19.221,0-38.421-6.976-53.717-20.907l-22.08-20.736
				L40.849,446.785c3.52,0.768,7.147,1.216,10.901,1.216h408.491c4.523,0,8.853-0.768,13.035-1.877L331.921,257.665L310.118,278.273
				z"></path>
            <path d="M5.184,93.575C1.963,100.317,0,107.783,0,115.741v280.512c0,9.088,2.56,17.536,6.699,24.96l142.08-192.789L5.184,93.575z
				"></path>
        </g>
      </g>
    </g>
        <g></g>
        <g></g>
        <g></g>
        <g></g>
        <g></g>
        <g></g>
        <g></g>
        <g></g>
        <g></g>
        <g></g>
        <g></g>
        <g></g>
        <g></g>
        <g></g>
        <g></g>
  </symbol>
    <symbol version="1.1" id="facebook" xmlns="http://www.w3.org/2000/svg" xmlns:xlink="http://www.w3.org/1999/xlink"
            x="0px" y="0px" xml:space="preserve" viewBox="0 0 310 310">
    <g id="XMLID_834_">
      <path id="XMLID_835_" d="M81.703,165.106h33.981V305c0,2.762,2.238,5,5,5h57.616c2.762,0,5-2.238,5-5V165.765h39.064
		c2.54,0,4.677-1.906,4.967-4.429l5.933-51.502c0.163-1.417-0.286-2.836-1.234-3.899c-0.949-1.064-2.307-1.673-3.732-1.673h-44.996
		V71.978c0-9.732,5.24-14.667,15.576-14.667c1.473,0,29.42,0,29.42,0c2.762,0,5-2.239,5-5V5.037c0-2.762-2.238-5-5-5h-40.545
		C187.467,0.023,186.832,0,185.896,0c-7.035,0-31.488,1.381-50.804,19.151c-21.402,19.692-18.427,43.27-17.716,47.358v37.752H81.703
		c-2.762,0-5,2.238-5,5v50.844C76.703,162.867,78.941,165.106,81.703,165.106z"></path>
    </g>
        <g></g>
        <g></g>
        <g></g>
        <g></g>
        <g></g>
        <g></g>
        <g></g>
        <g></g>
        <g></g>
        <g></g>
        <g></g>
        <g></g>
        <g></g>
        <g></g>
        <g></g>
  </symbol>
    <symbol xmlns="http://www.w3.org/2000/svg" viewBox="0 0 32 32" id="github">
        <path d="M16 0.396c-8.839 0-16 7.167-16 16 0 7.073 4.584 13.068 10.937 15.183 0.803 0.151 1.093-0.344 1.093-0.772 0-0.38-0.009-1.385-0.015-2.719-4.453 0.964-5.391-2.151-5.391-2.151-0.729-1.844-1.781-2.339-1.781-2.339-1.448-0.989 0.115-0.968 0.115-0.968 1.604 0.109 2.448 1.645 2.448 1.645 1.427 2.448 3.744 1.74 4.661 1.328 0.14-1.031 0.557-1.74 1.011-2.135-3.552-0.401-7.287-1.776-7.287-7.907 0-1.751 0.62-3.177 1.645-4.297-0.177-0.401-0.719-2.031 0.141-4.235 0 0 1.339-0.427 4.4 1.641 1.281-0.355 2.641-0.532 4-0.541 1.36 0.009 2.719 0.187 4 0.541 3.043-2.068 4.381-1.641 4.381-1.641 0.859 2.204 0.317 3.833 0.161 4.235 1.015 1.12 1.635 2.547 1.635 4.297 0 6.145-3.74 7.5-7.296 7.891 0.556 0.479 1.077 1.464 1.077 2.959 0 2.14-0.020 3.864-0.020 4.385 0 0.416 0.28 0.916 1.104 0.755 6.4-2.093 10.979-8.093 10.979-15.156 0-8.833-7.161-16-16-16z"></path>
    </symbol>
    <symbol version="1.1" id="home" xmlns="http://www.w3.org/2000/svg" xmlns:xlink="http://www.w3.org/1999/xlink"
            x="0px" y="0px" xml:space="preserve" viewBox="0 0 26.39 26.39">
    <g>
      <g id="c14_house">
        <path d="M3.588,24.297c0,0-0.024,0.59,0.553,0.59c0.718,0,6.652-0.008,6.652-0.008l0.01-5.451c0,0-0.094-0.898,0.777-0.898h2.761
			c1.031,0,0.968,0.898,0.968,0.898l-0.012,5.434c0,0,5.628,0,6.512,0c0.732,0,0.699-0.734,0.699-0.734V14.076L13.33,5.913
			l-9.742,8.164C3.588,14.077,3.588,24.297,3.588,24.297z"></path>
          <path d="M0,13.317c0,0,0.826,1.524,2.631,0l10.781-9.121l10.107,9.064c2.088,1.506,2.871,0,2.871,0L13.412,1.504L0,13.317z"></path>
          <polygon points="23.273,4.175 20.674,4.175 20.685,7.328 23.273,9.525 		"></polygon>
      </g>
        <g id="Capa_1_216_"></g>
    </g>
        <g></g>
        <g></g>
        <g></g>
        <g></g>
        <g></g>
        <g></g>
        <g></g>
        <g></g>
        <g></g>
        <g></g>
        <g></g>
        <g></g>
        <g></g>
        <g></g>
        <g></g>
  </symbol>
    <symbol xmlns="http://www.w3.org/2000/svg" viewBox="0 0 181.424 126.936" id="html">
        <path d="M51.895 106.535a9.039 9.039 0 0 1-6.018-2.284L0 63.469l48.427-43.05a9.066 9.066 0 0 1 12.042 13.555L27.296 63.469l30.628 27.217a9.072 9.072 0 0 1-6.018 15.85Zm81.1-.017 48.427-43.05-45.876-40.782a9.065 9.065 0 0 0-12.038 13.554l30.628 27.228-33.176 29.484a9.068 9.068 0 0 0 12.036 13.566Zm-42.408 12.846 18.133-108.8a9.063 9.063 0 1 0-17.878-2.986l-18.134 108.8a9.066 9.066 0 0 0 7.452 10.438 9.616 9.616 0 0 0 1.5.119 9.068 9.068 0 0 0 8.931-7.571Z"></path>
    </symbol>
    <symbol xmlns="http://www.w3.org/2000/svg" viewBox="0 0 24 24" id="instagram">
        <path d="M12,9.52A2.48,2.48,0,1,0,14.48,12,2.48,2.48,0,0,0,12,9.52Zm9.93-2.45a6.53,6.53,0,0,0-.42-2.26,4,4,0,0,0-2.32-2.32,6.53,6.53,0,0,0-2.26-.42C15.64,2,15.26,2,12,2s-3.64,0-4.93.07a6.53,6.53,0,0,0-2.26.42A4,4,0,0,0,2.49,4.81a6.53,6.53,0,0,0-.42,2.26C2,8.36,2,8.74,2,12s0,3.64.07,4.93a6.86,6.86,0,0,0,.42,2.27,3.94,3.94,0,0,0,.91,1.4,3.89,3.89,0,0,0,1.41.91,6.53,6.53,0,0,0,2.26.42C8.36,22,8.74,22,12,22s3.64,0,4.93-.07a6.53,6.53,0,0,0,2.26-.42,3.89,3.89,0,0,0,1.41-.91,3.94,3.94,0,0,0,.91-1.4,6.6,6.6,0,0,0,.42-2.27C22,15.64,22,15.26,22,12S22,8.36,21.93,7.07Zm-2.54,8A5.73,5.73,0,0,1,19,16.87,3.86,3.86,0,0,1,16.87,19a5.73,5.73,0,0,1-1.81.35c-.79,0-1,0-3.06,0s-2.27,0-3.06,0A5.73,5.73,0,0,1,7.13,19a3.51,3.51,0,0,1-1.31-.86A3.51,3.51,0,0,1,5,16.87a5.49,5.49,0,0,1-.34-1.81c0-.79,0-1,0-3.06s0-2.27,0-3.06A5.49,5.49,0,0,1,5,7.13a3.51,3.51,0,0,1,.86-1.31A3.59,3.59,0,0,1,7.13,5a5.73,5.73,0,0,1,1.81-.35h0c.79,0,1,0,3.06,0s2.27,0,3.06,0A5.73,5.73,0,0,1,16.87,5a3.51,3.51,0,0,1,1.31.86A3.51,3.51,0,0,1,19,7.13a5.73,5.73,0,0,1,.35,1.81c0,.79,0,1,0,3.06S19.42,14.27,19.39,15.06Zm-1.6-7.44a2.38,2.38,0,0,0-1.41-1.41A4,4,0,0,0,15,6c-.78,0-1,0-3,0s-2.22,0-3,0a4,4,0,0,0-1.38.26A2.38,2.38,0,0,0,6.21,7.62,4.27,4.27,0,0,0,6,9c0,.78,0,1,0,3s0,2.22,0,3a4.27,4.27,0,0,0,.26,1.38,2.38,2.38,0,0,0,1.41,1.41A4.27,4.27,0,0,0,9,18.05H9c.78,0,1,0,3,0s2.22,0,3,0a4,4,0,0,0,1.38-.26,2.38,2.38,0,0,0,1.41-1.41A4,4,0,0,0,18.05,15c0-.78,0-1,0-3s0-2.22,0-3A3.78,3.78,0,0,0,17.79,7.62ZM12,15.82A3.81,3.81,0,0,1,8.19,12h0A3.82,3.82,0,1,1,12,15.82Zm4-6.89a.9.9,0,0,1,0-1.79h0a.9.9,0,0,1,0,1.79Z"></path>
    </symbol>
    <symbol xmlns="http://www.w3.org/2000/svg" viewBox="0 0 24 24" id="java-script">
        <path d="M14.478,14.8829a4.06111,4.06111,0,0,1-2.18725-.39825,1.4389,1.4389,0,0,1-.53547-1.01019.22184.22184,0,0,0-.22662-.21942c-.31659-.00385-.63312-.003-.94965-.00043a.2113.2113,0,0,0-.23138.18628,2.33854,2.33854,0,0,0,.75305,1.84454,3.99135,3.99135,0,0,0,2.22827.8382,8.06151,8.06151,0,0,0,2.53308-.10755,3.12591,3.12591,0,0,0,1.67823-.90442,2.33824,2.33824,0,0,0,.396-2.23077,1.869,1.869,0,0,0-1.2304-1.09454c-1.28077-.4494-2.66431-.41541-3.97-.7569-.22668-.07135-.50366-.1488-.60467-.38879a.85461.85461,0,0,1,.28418-.95478,2.5576,2.5576,0,0,1,1.34875-.33581,4.07051,4.07051,0,0,1,1.88416.26959,1.43564,1.43564,0,0,1,.68677.99219.243.243,0,0,0,.2276.23565c.31433.00641.62878.00171.94311.00214a.22791.22791,0,0,0,.24732-.16772,2.43369,2.43369,0,0,0-1.18665-2.106,5.8791,5.8791,0,0,0-3.2182-.49243V8.08341a3.50546,3.50546,0,0,0-2.17615.87438,2.1746,2.1746,0,0,0-.43438,2.26264,1.92964,1.92964,0,0,0,1.21838,1.06177c1.27649.46106,2.67554.31311,3.96442.72082.25116.08521.54364.21552.6206.49506a.9907.9907,0,0,1-.26965.94616A2.97065,2.97065,0,0,1,14.478,14.8829Zm5.81891-8.44537q-3.73837-2.114-7.47845-4.22418a1.67742,1.67742,0,0,0-1.63733,0Q7.4556,4.31715,3.72968,6.42075a1.54242,1.54242,0,0,0-.8042,1.34271V16.2377a1.55266,1.55266,0,0,0,.8352,1.355c.71351.38837,1.40674.81629,2.13318,1.17884a3.06373,3.06373,0,0,0,2.73822.07525,2.1275,2.1275,0,0,0,.99482-1.92114c.00555-2.79669.00085-5.59351.00213-8.39026a.21981.21981,0,0,0-.20727-.25415c-.31739-.00513-.63526-.003-.95264-.00085a.20935.20935,0,0,0-.228.21368c-.00427,2.77875.00086,5.55829-.00256,8.33746a.94053.94053,0,0,1-.609.88373,1.53242,1.53242,0,0,1-1.23993-.16595q-.99152-.56-1.983-1.11988a.23714.23714,0,0,1-.13464-.23529q0-4.19383,0-8.38726a.2589.2589,0,0,1,.157-.2602Q8.1423,5.4553,11.85419,3.35953a.258.258,0,0,1,.29163.00043Q15.859,5.452,19.57184,7.5455a.262.262,0,0,1,.15613.26142Q19.72733,12,19.72712,16.19376a.242.242,0,0,1-.13294.23828q-3.65643,2.06753-7.31677,4.12909c-.11658.06494-.25458.16943-.39093.09076-.6391-.36176-1.27039-.73755-1.90735-1.10273a.20589.20589,0,0,0-.22968-.01379,5.21834,5.21834,0,0,1-.88208.41162c-.13806.05591-.30792.07184-.40295.19989a1.31566,1.31566,0,0,0,.43127.31061q1.11741.647,2.236,1.29285a1.62967,1.62967,0,0,0,1.65539.046q3.7261-2.101,7.45185-4.20392a1.55627,1.55627,0,0,0,.83563-1.35474V7.76346A1.53956,1.53956,0,0,0,20.29694,6.43753Z"></path>
    </symbol>
    <symbol version="1.1" id="linkedin" xmlns="http://www.w3.org/2000/svg" xmlns:xlink="http://www.w3.org/1999/xlink"
            x="0px" y="0px" xml:space="preserve" viewBox="0 0 310 310">
    <g id="XMLID_801_">
      <path id="XMLID_802_" d="M72.16,99.73H9.927c-2.762,0-5,2.239-5,5v199.928c0,2.762,2.238,5,5,5H72.16c2.762,0,5-2.238,5-5V104.73
		C77.16,101.969,74.922,99.73,72.16,99.73z"></path>
        <path id="XMLID_803_" d="M41.066,0.341C18.422,0.341,0,18.743,0,41.362C0,63.991,18.422,82.4,41.066,82.4
		c22.626,0,41.033-18.41,41.033-41.038C82.1,18.743,63.692,0.341,41.066,0.341z"></path>
        <path id="XMLID_804_" d="M230.454,94.761c-24.995,0-43.472,10.745-54.679,22.954V104.73c0-2.761-2.238-5-5-5h-59.599
		c-2.762,0-5,2.239-5,5v199.928c0,2.762,2.238,5,5,5h62.097c2.762,0,5-2.238,5-5v-98.918c0-33.333,9.054-46.319,32.29-46.319
		c25.306,0,27.317,20.818,27.317,48.034v97.204c0,2.762,2.238,5,5,5H305c2.762,0,5-2.238,5-5V194.995
		C310,145.43,300.549,94.761,230.454,94.761z"></path>
    </g>
        <g></g>
        <g></g>
        <g></g>
        <g></g>
        <g></g>
        <g></g>
        <g></g>
        <g></g>
        <g></g>
        <g></g>
        <g></g>
        <g></g>
        <g></g>
        <g></g>
        <g></g>
  </symbol>
    <symbol version="1.1" id="location" xmlns="http://www.w3.org/2000/svg" xmlns:xlink="http://www.w3.org/1999/xlink"
            x="0px" y="0px" xml:space="preserve" viewBox="0 0 368.666 368.666">
    <g id="XMLID_2_">
      <g>
        <g>
          <path d="M184.333,0C102.01,0,35.036,66.974,35.036,149.297c0,33.969,11.132,65.96,32.193,92.515
				c27.27,34.383,106.572,116.021,109.934,119.479l7.169,7.375l7.17-7.374c3.364-3.46,82.69-85.116,109.964-119.51
				c21.042-26.534,32.164-58.514,32.164-92.485C333.63,66.974,266.656,0,184.333,0z M285.795,229.355
				c-21.956,27.687-80.92,89.278-101.462,110.581c-20.54-21.302-79.483-82.875-101.434-110.552
				c-18.228-22.984-27.863-50.677-27.863-80.087C55.036,78.002,113.038,20,184.333,20c71.294,0,129.297,58.002,129.296,129.297
				C313.629,178.709,304.004,206.393,285.795,229.355z"></path>
            <path d="M184.333,59.265c-48.73,0-88.374,39.644-88.374,88.374c0,48.73,39.645,88.374,88.374,88.374s88.374-39.645,88.374-88.374
				S233.063,59.265,184.333,59.265z M184.333,216.013c-37.702,0-68.374-30.673-68.374-68.374c0-37.702,30.673-68.374,68.374-68.374
				s68.373,30.673,68.374,68.374C252.707,185.341,222.035,216.013,184.333,216.013z"></path>
        </g>
      </g>
    </g>
        <g></g>
        <g></g>
        <g></g>
        <g></g>
        <g></g>
        <g></g>
        <g></g>
        <g></g>
        <g></g>
        <g></g>
        <g></g>
        <g></g>
        <g></g>
        <g></g>
        <g></g>
  </symbol>
    <symbol version="1.1" id="mail" xmlns="http://www.w3.org/2000/svg" xmlns:xlink="http://www.w3.org/1999/xlink"
            x="0px" y="0px" xml:space="preserve" viewBox="0 0 400 400">
    <g id="XMLID_1_">
      <polygon id="XMLID_869_" points="0,127.5 0,274.219 104.8,206.1 	"></polygon>
        <polygon id="XMLID_870_" points="400,274.219 400,127.5 295.2,206.1 	"></polygon>
        <polygon id="XMLID_871_"
                 points="200,277.5 130.357,225.268 0,310 0,340 400,340 400,310 269.643,225.268 	"></polygon>
        <polygon id="XMLID_872_" points="0,90 200,240 400,90 400,60 0,60 	"></polygon>
    </g>
        <g></g>
        <g></g>
        <g></g>
        <g></g>
        <g></g>
        <g></g>
        <g></g>
        <g></g>
        <g></g>
        <g></g>
        <g></g>
        <g></g>
        <g></g>
        <g></g>
        <g></g>
  </symbol>
    <symbol version="1.1" id="man" xmlns="http://www.w3.org/2000/svg" xmlns:xlink="http://www.w3.org/1999/xlink" x="0px"
            y="0px" xml:space="preserve" viewBox="0 0 350 350">
    <g>
      <path d="M175,171.173c38.914,0,70.463-38.318,70.463-85.586C245.463,38.318,235.105,0,175,0s-70.465,38.318-70.465,85.587
		C104.535,132.855,136.084,171.173,175,171.173z"></path>
        <path d="M41.909,301.853C41.897,298.971,41.885,301.041,41.909,301.853L41.909,301.853z"></path>
        <path d="M308.085,304.104C308.123,303.315,308.098,298.63,308.085,304.104L308.085,304.104z"></path>
        <path d="M307.935,298.397c-1.305-82.342-12.059-105.805-94.352-120.657c0,0-11.584,14.761-38.584,14.761
		s-38.586-14.761-38.586-14.761c-81.395,14.69-92.803,37.805-94.303,117.982c-0.123,6.547-0.18,6.891-0.202,6.131
		c0.005,1.424,0.011,4.058,0.011,8.651c0,0,19.592,39.496,133.08,39.496c113.486,0,133.08-39.496,133.08-39.496
		c0-2.951,0.002-5.003,0.005-6.399C308.062,304.575,308.018,303.664,307.935,298.397z"></path>
    </g>
        <g></g>
        <g></g>
        <g></g>
        <g></g>
        <g></g>
        <g></g>
        <g></g>
        <g></g>
        <g></g>
        <g></g>
        <g></g>
        <g></g>
        <g></g>
        <g></g>
        <g></g>
  </symbol>
    <symbol role="img" xmlns="http://www.w3.org/2000/svg" viewBox="0 0 24 24" id="material-ui">
        <title>Material-UI icon</title>
        <path d="M0 2.475v10.39l3 1.733V7.67l6 3.465 6-3.465v3.465l-6 3.463v3.464l6 3.463 9-5.195V9.402l-3 1.733v3.463l-6 3.464-3-1.732 6-3.465V2.475L9 7.67 0 2.475zm24 0l-3 1.73V7.67l3-1.732V2.474Z"></path>
    </symbol>
    <symbol version="1.1" id="message" xmlns="http://www.w3.org/2000/svg" xmlns:xlink="http://www.w3.org/1999/xlink"
            x="0px" y="0px" xml:space="preserve" viewBox="0 0 28.027 28.028">
    <g>
      <g>
        <path d="M17.146,13.426l10.77-5.383c-0.4-1.682-1.91-2.947-3.71-2.947H3.823c-1.799,0-3.311,1.265-3.71,2.947l10.769,5.383
			C12.502,14.237,15.526,14.237,17.146,13.426z"></path>
          <path d="M17.717,14.565c-0.996,0.499-2.311,0.772-3.703,0.772s-2.707-0.274-3.703-0.772l-2.978-1.489L0,16.743v2.367
			c0,2.102,1.72,3.821,3.822,3.821h20.383c2.102,0,3.822-1.72,3.822-3.821v-2.367l-7.333-3.666L17.717,14.565z"></path>
          <polygon points="22.119,12.365 28.027,15.319 28.027,9.411 		"></polygon>
          <polygon points="0.001,9.41 0.001,15.319 5.909,12.365 		"></polygon>
      </g>
    </g>
        <g></g>
        <g></g>
        <g></g>
        <g></g>
        <g></g>
        <g></g>
        <g></g>
        <g></g>
        <g></g>
        <g></g>
        <g></g>
        <g></g>
        <g></g>
        <g></g>
        <g></g>
  </symbol>
    <symbol version="1.1" id="phone" xmlns="http://www.w3.org/2000/svg" xmlns:xlink="http://www.w3.org/1999/xlink"
            x="0px" y="0px" xml:space="preserve" viewBox="0 0 59.997 59.997">
    <g>
      <path d="M44.071,38.385c-1.275-0.728-2.597-0.958-3.721-0.646c-0.844,0.234-1.532,0.768-1.995,1.546
		c-1.021,1.221-2.287,2.646-2.592,2.867c-2.371,1.604-4.252,1.414-6.295-0.629L17.982,30.037c-2.045-2.045-2.233-3.928-0.631-6.292
		c0.224-0.31,1.649-1.575,2.869-2.595c0.778-0.464,1.312-1.151,1.546-1.996c0.311-1.123,0.081-2.444-0.653-3.731
		c-0.173-0.296-4.289-7.27-8.085-9.277c-1.929-1.019-4.255-0.67-5.796,0.872L4.695,9.555c-7.401,7.402-6.031,16.596,3.962,26.588
		l14.705,14.706c4.539,4.54,8.937,7.326,13.068,8.281c1.096,0.253,2.17,0.38,3.224,0.38c3.717,0,7.169-1.573,10.296-4.7l2.537-2.537
		c1.541-1.541,1.892-3.87,0.872-5.796C51.351,42.682,44.378,38.564,44.071,38.385z M51.073,50.858l-2.537,2.537
		c-6.568,6.568-14.563,5.237-23.76-3.961L10.071,34.728c-9.197-9.196-10.53-17.19-3.962-23.76l2.537-2.537
		c0.566-0.566,1.313-0.862,2.07-0.862c0.467,0,0.939,0.112,1.376,0.344c3.294,1.743,7.256,8.454,7.289,8.511
		c0.449,0.787,0.62,1.608,0.457,2.196c-0.1,0.36-0.323,0.634-0.684,0.836l-0.15,0.104c-0.853,0.712-2.883,2.434-3.308,3.061
		c-0.612,0.904-1.018,1.792-1.231,2.665c-0.711-1.418-1.285-3.06-1.474-4.881c-0.058-0.549-0.547-0.94-1.099-0.892
		c-0.549,0.058-0.948,0.549-0.892,1.099c0.722,6.953,6.13,11.479,6.359,11.668c0.025,0.021,0.055,0.028,0.081,0.046l10.612,10.612
		c0.045,0.045,0.091,0.084,0.136,0.127c0.035,0.052,0.058,0.109,0.104,0.155c0.189,0.187,4.704,4.567,11.599,5.283
		c0.035,0.003,0.07,0.005,0.104,0.005c0.506,0,0.94-0.383,0.994-0.896c0.057-0.55-0.343-1.041-0.892-1.099
		c-2.115-0.219-3.988-0.839-5.549-1.558c0.766-0.23,1.545-0.612,2.334-1.147c0.627-0.426,2.349-2.454,3.06-3.307l0.104-0.151
		c0.202-0.359,0.476-0.583,0.836-0.684c0.585-0.159,1.408,0.007,2.185,0.45c1.879,1.102,7.073,4.56,8.521,7.296
		C52.197,48.558,51.989,49.942,51.073,50.858z"></path>
        <path d="M27.362,0.487c-0.553,0-1,0.447-1,1s0.447,1,1,1c16.892,0,30.635,13.743,30.635,30.635c0,0.553,0.447,1,1,1s1-0.447,1-1
		C59.997,15.127,45.357,0.487,27.362,0.487z"></path>
        <path d="M27.362,9.517c13.016,0,23.604,10.589,23.604,23.604c0,0.553,0.447,1,1,1s1-0.447,1-1
		c0-14.118-11.486-25.604-25.604-25.604c-0.553,0-1,0.447-1,1S26.809,9.517,27.362,9.517z"></path>
        <path d="M27.362,16.547c9.14,0,16.575,7.436,16.575,16.575c0,0.553,0.447,1,1,1s1-0.447,1-1c0-10.242-8.333-18.575-18.575-18.575
		c-0.553,0-1,0.447-1,1S26.809,16.547,27.362,16.547z"></path>
    </g>
        <g></g>
        <g></g>
        <g></g>
        <g></g>
        <g></g>
        <g></g>
        <g></g>
        <g></g>
        <g></g>
        <g></g>
        <g></g>
        <g></g>
        <g></g>
        <g></g>
        <g></g>
  </symbol>
    <symbol version="1.1" id="portfolio" xmlns="http://www.w3.org/2000/svg" xmlns:xlink="http://www.w3.org/1999/xlink"
            x="0px" y="0px" xml:space="preserve" viewBox="0 0 511.999 511.999">
    <g>
      <g>
        <path d="M281.914,386.02c-7.902,4.413-16.864,6.746-25.914,6.746s-18.012-2.333-25.912-6.745L0,257.548v188.9
			c0,9.784,7.932,17.717,17.717,17.717h476.566c9.784,0,17.717-7.932,17.717-17.717v-188.9L281.914,386.02z"></path>
      </g>
    </g>
        <g>
      <g>
        <path d="M494.282,119.334H346.354c0-12.185,0-48.434,0-53.783c0-9.784-7.932-17.717-17.717-17.717H183.363
			c-9.784,0-17.717,7.932-17.717,17.717c0,5.35,0,41.601,0,53.783H17.718C7.932,119.333,0,127.265,0,137.05v69.515
			c0,6.421,3.474,12.339,9.081,15.47l215.031,120.067v-39.835c0-5.808,4.708-10.516,10.516-10.516h42.747
			c5.808,0,10.516,4.708,10.516,10.516v39.836l215.03-120.068c5.605-3.131,9.08-9.048,9.08-15.469v-69.515
			C511.999,127.266,504.067,119.334,494.282,119.334z M310.919,119.333H201.081V83.899h109.839V119.333z"></path>
      </g>
    </g>
        <g></g>
        <g></g>
        <g></g>
        <g></g>
        <g></g>
        <g></g>
        <g></g>
        <g></g>
        <g></g>
        <g></g>
        <g></g>
        <g></g>
        <g></g>
        <g></g>
        <g></g>
  </symbol>
    <symbol xmlns="http://www.w3.org/2000/svg" viewBox="0 0 27 24" id="react">
        <path d="m15.902 11.974c0 1.331-1.079 2.41-2.41 2.41s-2.41-1.079-2.41-2.41 1.079-2.41 2.41-2.41 2.41 1.079 2.41 2.41z"></path>
        <path d="m13.491 17.494c-.201.005-.438.008-.676.008-2.811 0-5.522-.425-8.073-1.214l.193.051c-1.351-.436-2.522-1.079-3.541-1.903l.021.016c-.789-.571-1.32-1.455-1.41-2.467l-.001-.013c0-1.594 1.747-3.154 4.681-4.172 2.512-.827 5.403-1.304 8.405-1.304.139 0 .278.001.417.003h-.021c.116-.002.252-.003.389-.003 2.965 0 5.82.469 8.496 1.337l-.195-.055c1.305.424 2.438 1.036 3.433 1.814l-.024-.018c.775.546 1.298 1.404 1.386 2.387l.001.013c0 1.656-1.954 3.332-5.103 4.374-2.363.729-5.08 1.149-7.895 1.149-.17 0-.339-.002-.508-.005h.025zm0-9.84c-.106-.002-.232-.002-.358-.002-2.881 0-5.656.452-8.259 1.289l.191-.053c-2.698.941-3.908 2.228-3.908 3.087 0 .893 1.301 2.3 4.153 3.274 2.249.697 4.834 1.099 7.513 1.099.235 0 .469-.003.702-.009l-.034.001c.146.003.318.005.49.005 2.684 0 5.274-.4 7.715-1.143l-.187.049c2.96-.984 4.32-2.391 4.32-3.28-.102-.638-.462-1.176-.966-1.515l-.008-.005c-.866-.674-1.876-1.217-2.97-1.574l-.07-.02c-2.368-.766-5.093-1.208-7.92-1.208-.142 0-.283.001-.424.003h.021z"></path>
        <path d="m8.023 23.986c-.016 0-.035.001-.053.001-.453 0-.878-.119-1.245-.327l.013.007c-1.378-.8-1.858-3.092-1.28-6.141.697-3.128 1.827-5.894 3.344-8.4l-.069.124c1.499-2.655 3.31-4.926 5.425-6.872l.02-.018c.923-.844 2.003-1.537 3.187-2.028l.073-.027c.407-.196.885-.31 1.39-.31.501 0 .976.113 1.4.314l-.02-.008c1.435.826 1.911 3.36 1.238 6.606-.72 2.967-1.818 5.58-3.262 7.959l.07-.123c-1.452 2.63-3.209 4.882-5.266 6.819l-.014.013c-.958.877-2.083 1.59-3.321 2.082l-.074.026c-.46.181-.992.292-1.549.305h-.006zm1.205-14.447.499.288c-1.381 2.28-2.465 4.926-3.106 7.74l-.034.18c-.533 2.809-.019 4.498.72 4.926.191.102.417.161.657.161.02 0 .041 0 .061-.001h-.003c.955 0 2.458-.605 4.196-2.122 1.976-1.867 3.654-4.023 4.972-6.404l.068-.135c1.318-2.156 2.371-4.653 3.025-7.307l.038-.182c.629-3.058.086-4.93-.686-5.378-.238-.094-.514-.148-.802-.148-.364 0-.708.087-1.012.24l.013-.006c-1.118.465-2.078 1.086-2.907 1.846l.007-.006c-2.041 1.881-3.772 4.057-5.136 6.468l-.069.132z"></path>
        <path d="m18.96 24c-1.306 0-2.96-.787-4.69-2.276-2.175-1.983-4.017-4.282-5.464-6.834l-.072-.137c-1.43-2.349-2.551-5.075-3.215-7.975l-.036-.185c-.162-.709-.255-1.522-.255-2.357 0-.527.037-1.044.108-1.551l-.007.058c.085-.998.608-1.858 1.372-2.399l.01-.007c1.43-.83 3.865.024 6.342 2.228 2.022 1.914 3.748 4.113 5.118 6.54l.072.138c1.428 2.297 2.557 4.961 3.242 7.798l.038.186c.163.709.257 1.524.257 2.36 0 .577-.044 1.143-.13 1.696l.008-.062c-.103 1.022-.644 1.901-1.429 2.456l-.011.007c-.348.199-.764.316-1.207.316-.018 0-.036 0-.054-.001h.003zm-9.228-9.823c1.458 2.571 3.217 4.771 5.271 6.656l.02.018c2.166 1.863 3.884 2.266 4.628 1.834.773-.446 1.339-2.276.754-5.233-.702-2.89-1.787-5.434-3.219-7.741l.065.112c-1.379-2.456-3.027-4.562-4.948-6.384l-.012-.011c-2.334-2.074-4.225-2.54-4.998-2.094-.473.385-.784.952-.825 1.593v.007c-.055.39-.086.84-.086 1.298 0 .757.086 1.493.248 2.201l-.013-.066c.673 2.952 1.747 5.559 3.182 7.924l-.066-.117z"></path>
    </symbol>
    <symbol xmlns="http://www.w3.org/2000/svg" viewBox="0 0 25 24" id="redux">
        <path d="m17.54 16.745c.893-.089 1.585-.837 1.585-1.746 0-.036-.001-.072-.003-.108v.005c-.047-.963-.834-1.726-1.801-1.736h-.065c-.968.036-1.739.829-1.739 1.802 0 .022 0 .044.001.067v-.003c.026.473.22.897.522 1.217l-.001-.001c-1.187 2.214-3.001 3.96-5.204 5.031l-.069.03c-1.192.66-2.614 1.048-4.127 1.048-.383 0-.761-.025-1.13-.073l.044.005c-1.361-.131-2.533-.844-3.277-1.884l-.009-.014c-.537-.755-.858-1.695-.858-2.711 0-.837.218-1.623.601-2.305l-.012.024c.547-1.036 1.293-1.898 2.194-2.562l.021-.014c-.171-.453-.324-.999-.432-1.56l-.011-.066c-4.683 3.349-4.208 7.93-2.786 10.095 1.243 1.586 3.159 2.596 5.311 2.596.098 0 .195-.002.292-.006h-.014c.035.001.077.001.119.001.647 0 1.276-.075 1.88-.216l-.056.011c4.008-.734 7.29-3.317 8.974-6.814l.032-.074z"></path>
        <path d="m23.18 12.799c-2.403-2.74-5.91-4.46-9.82-4.46-.119 0-.239.002-.357.005h.018-.538c-.283-.567-.86-.95-1.526-.95-.02 0-.039 0-.059.001h.003-.039c-.966.014-1.744.8-1.744 1.768 0 .029.001.057.002.085v-.004c.045.963.832 1.728 1.8 1.738h.079c.714-.028 1.317-.472 1.577-1.094l.004-.012h.585c2.554.003 4.924.787 6.884 2.128l-.042-.027c1.531.98 2.713 2.388 3.392 4.055l.021.058c.26.542.411 1.178.411 1.849 0 .71-.169 1.38-.47 1.972l.011-.025c-.777 1.586-2.379 2.658-4.231 2.658-.068 0-.135-.001-.202-.004h.01c-1.137-.024-2.21-.274-3.183-.707l.052.021c-.379.316-1.011.836-1.47 1.153 1.214.596 2.638.959 4.143.994h.012c.059.002.128.003.197.003 2.552 0 4.787-1.355 6.026-3.384l.018-.031c.342-.811.54-1.753.54-2.742 0-1.98-.796-3.774-2.085-5.079l.001.001-.015.032z"></path>
        <path d="m6.844 17.316c.044.964.833 1.731 1.803 1.738h.064c.968-.033 1.741-.827 1.741-1.8 0-.99-.799-1.794-1.788-1.801h-.067c-.01-.001-.022-.001-.033-.001-.073 0-.143.011-.209.033l.005-.001c-1.07-1.741-1.703-3.85-1.703-6.107 0-.364.016-.724.049-1.079l-.003.046c.091-1.906.791-3.633 1.907-5.007l-.012.016c.991-1.071 2.387-1.753 3.944-1.803h.009c3.412-.064 4.835 4.188 4.945 5.878l1.582.473c-.368-5.181-3.59-7.901-6.671-7.901-3.132.163-5.731 2.27-6.622 5.131l-.014.052c-.438 1.262-.692 2.716-.692 4.229 0 2.588.741 5.003 2.021 7.044l-.032-.055c-.143.216-.228.481-.228.766 0 .053.003.105.009.156l-.001-.006z"></path>
    </symbol>
    <symbol version="1.1" id="server" xmlns="http://www.w3.org/2000/svg" xmlns:xlink="http://www.w3.org/1999/xlink"
            x="0px" y="0px" xml:space="preserve" viewBox="0 0 60 60">
    <g>
      <path d="M58.199,48.02c-0.549-0.103-1.069,0.241-1.18,0.781C55.903,54.303,51.574,58,46.249,58c-5.028,0-9.446-3.3-10.948-8H40v-2
		h-8v8h2v-3.849C36.169,56.833,40.915,60,46.249,60c6.304,0,11.42-4.341,12.731-10.801C59.09,48.657,58.74,48.13,58.199,48.02z"></path>
        <path d="M58,40.309C55.75,35.854,51.296,33,46.249,33c-6.109,0-11.541,3.997-13.209,9.721c-0.154,0.53,0.15,1.085,0.681,1.239
		c0.531,0.155,1.086-0.15,1.239-0.681C36.358,38.482,41.105,35,46.249,35c4.565,0,8.562,2.766,10.33,7H52v2h8v-8h-2V40.309z"></path>
        <path d="M10.5,6C8.019,6,6,8.019,6,10.5S8.019,15,10.5,15s4.5-2.019,4.5-4.5S12.981,6,10.5,6z M10.5,13C9.121,13,8,11.879,8,10.5
		S9.121,8,10.5,8S13,9.121,13,10.5S11.879,13,10.5,13z"></path>
        <circle cx="50" cy="9" r="1"></circle>
        <circle cx="46" cy="9" r="1"></circle>
        <circle cx="52" cy="12" r="1"></circle>
        <circle cx="48" cy="12" r="1"></circle>
        <circle cx="42" cy="9" r="1"></circle>
        <circle cx="44" cy="12" r="1"></circle>
        <circle cx="38" cy="9" r="1"></circle>
        <circle cx="40" cy="12" r="1"></circle>
        <circle cx="34" cy="9" r="1"></circle>
        <circle cx="36" cy="12" r="1"></circle>
        <path d="M60,16.392V4.608C60,2.067,57.933,0,55.392,0H4.608C2.067,0,0,2.067,0,4.608v11.783C0,17.86,0.703,19.155,1.777,20
		C0.703,20.845,0,22.14,0,23.608v11.783C0,36.86,0.703,38.155,1.777,39C0.703,39.845,0,41.14,0,42.608v11.783
		C0,56.933,2.067,59,4.608,59H28v-2H4.608C3.17,57,2,55.83,2,54.392V42.608C2,41.17,3.17,40,4.608,40H30v-2H4.608
		C3.17,38,2,36.83,2,35.392V23.608C2,22.17,3.17,21,4.608,21h50.783C56.83,21,58,22.17,58,23.608V31h2v-7.392
		c0-1.469-0.703-2.764-1.777-3.608C59.297,19.155,60,17.86,60,16.392z M4.608,19C3.17,19,2,17.83,2,16.392V4.608
		C2,3.17,3.17,2,4.608,2h50.783C56.83,2,58,3.17,58,4.608v11.783C58,17.83,56.83,19,55.392,19H4.608z"></path>
        <path d="M6,29.5c0,2.481,2.019,4.5,4.5,4.5s4.5-2.019,4.5-4.5S12.981,25,10.5,25S6,27.019,6,29.5z M13,29.5
		c0,1.379-1.121,2.5-2.5,2.5S8,30.879,8,29.5S9.121,27,10.5,27S13,28.121,13,29.5z"></path>
        <circle cx="50" cy="28" r="1"></circle>
        <circle cx="46" cy="28" r="1"></circle>
        <circle cx="52" cy="31" r="1"></circle>
        <circle cx="48" cy="31" r="1"></circle>
        <circle cx="42" cy="28" r="1"></circle>
        <circle cx="44" cy="31" r="1"></circle>
        <circle cx="38" cy="28" r="1"></circle>
        <circle cx="40" cy="31" r="1"></circle>
        <circle cx="34" cy="28" r="1"></circle>
        <circle cx="36" cy="31" r="1"></circle>
        <path d="M6,48.5c0,2.481,2.019,4.5,4.5,4.5s4.5-2.019,4.5-4.5S12.981,44,10.5,44S6,46.019,6,48.5z M13,48.5
		c0,1.379-1.121,2.5-2.5,2.5S8,49.879,8,48.5S9.121,46,10.5,46S13,47.121,13,48.5z"></path>
    </g>
        <g></g>
        <g></g>
        <g></g>
        <g></g>
        <g></g>
        <g></g>
        <g></g>
        <g></g>
        <g></g>
        <g></g>
        <g></g>
        <g></g>
        <g></g>
        <g></g>
        <g></g>
  </symbol>
    <symbol version="1.1" id="skills" xmlns="http://www.w3.org/2000/svg" xmlns:xlink="http://www.w3.org/1999/xlink"
            x="0px" y="0px" xml:space="preserve" viewBox="0 0 232.688 232.688">
    <g id="XMLID_350_">
      <g id="XMLID_351_">
        <path id="XMLID_352_" d="M97.688,61.344h120c8.284,0,15-6.716,15-15s-6.716-15-15-15h-120c-8.284,0-15,6.716-15,15
			S89.403,61.344,97.688,61.344z"></path>
      </g>
        <g id="XMLID_439_">
        <path id="XMLID_440_" d="M217.688,101.344h-120c-8.284,0-15,6.716-15,15s6.716,15,15,15h120c8.284,0,15-6.716,15-15
			S225.972,101.344,217.688,101.344z"></path>
      </g>
        <g id="XMLID_441_">
        <path id="XMLID_443_" d="M217.688,171.344h-120c-8.284,0-15,6.716-15,15c0,8.284,6.716,15,15,15h120c8.284,0,15-6.716,15-15
			C232.688,178.06,225.972,171.344,217.688,171.344z"></path>
      </g>
        <g id="XMLID_444_">
        <path id="XMLID_445_" d="M48.785,104.408l-9.989-1.452l-4.467-9.052c-1.264-2.56-3.87-4.181-6.726-4.181
			c-2.854,0-5.462,1.621-6.726,4.181l-4.468,9.052l-9.988,1.452c-2.825,0.41-5.173,2.389-6.055,5.104
			c-0.882,2.715-0.146,5.695,1.897,7.688l7.228,7.045l-1.707,9.949c-0.483,2.814,0.674,5.658,2.983,7.336
			c1.307,0.95,2.853,1.433,4.409,1.433c1.193,0,2.392-0.285,3.489-0.861l8.936-4.698l8.936,4.698
			c1.098,0.577,2.296,0.861,3.489,0.861c0.007,0,0.015,0,0.021,0c4.142-0.001,7.499-3.358,7.499-7.5
			c0-0.629-0.077-1.241-0.223-1.825l-1.612-9.393l7.228-7.045c2.045-1.993,2.78-4.973,1.898-7.688
			C53.958,106.797,51.61,104.818,48.785,104.408z"></path>
      </g>
        <g id="XMLID_446_">
        <path id="XMLID_447_" d="M48.785,34.408l-9.989-1.452l-4.467-9.052c-1.264-2.56-3.87-4.181-6.726-4.181
			c-2.854,0-5.462,1.621-6.726,4.181l-4.468,9.052l-9.988,1.452c-2.825,0.41-5.173,2.389-6.055,5.104
			c-0.882,2.715-0.146,5.695,1.897,7.688l7.228,7.045l-1.707,9.949c-0.483,2.814,0.674,5.658,2.983,7.336
			c1.307,0.95,2.853,1.433,4.409,1.433c1.193,0,2.392-0.285,3.489-0.861l8.936-4.698l8.936,4.698
			c1.098,0.577,2.296,0.861,3.489,0.861c0.007,0,0.015,0,0.021,0c4.142,0,7.499-3.358,7.499-7.5c0-0.629-0.077-1.241-0.223-1.825
			l-1.612-9.393l7.228-7.045c2.045-1.993,2.78-4.973,1.898-7.688C53.958,36.797,51.61,34.818,48.785,34.408z"></path>
      </g>
        <g id="XMLID_448_">
        <path id="XMLID_449_" d="M48.785,174.408l-9.989-1.452l-4.467-9.052c-1.264-2.56-3.87-4.181-6.726-4.181
			c-2.854,0-5.462,1.621-6.726,4.181l-4.468,9.052l-9.988,1.452c-2.825,0.41-5.173,2.389-6.055,5.104
			c-0.882,2.715-0.146,5.695,1.897,7.688l7.228,7.045l-1.707,9.949c-0.483,2.814,0.674,5.658,2.983,7.336
			c1.307,0.95,2.853,1.433,4.409,1.433c1.193,0,2.392-0.285,3.489-0.861l8.936-4.698l8.936,4.698
			c1.098,0.577,2.296,0.861,3.489,0.861c0.007,0,0.015,0,0.021,0c4.142-0.001,7.499-3.358,7.499-7.5
			c0-0.629-0.077-1.241-0.223-1.825l-1.612-9.393l7.228-7.045c2.045-1.993,2.78-4.973,1.898-7.688
			C53.958,176.797,51.61,174.818,48.785,174.408z"></path>
      </g>
    </g>
        <g></g>
        <g></g>
        <g></g>
        <g></g>
        <g></g>
        <g></g>
        <g></g>
        <g></g>
        <g></g>
        <g></g>
        <g></g>
        <g></g>
        <g></g>
        <g></g>
        <g></g>
  </symbol>
    <symbol version="1.1" id="test" xmlns="http://www.w3.org/2000/svg" xmlns:xlink="http://www.w3.org/1999/xlink"
            x="0px" y="0px" xml:space="preserve" viewBox="0 0 490.038 490.038">
    <g>
      <path d="M198.637,45.325l9.9-9.9c8.3-8.3,8.3-20.9,0-29.2s-20.9-8.3-29.2,0l-173.1,172c-8.3,8.3-8.3,20.9,0,29.2
		c11.5,11.5,25.5,4.4,28.1,1l10.5-10.4l260.6,260.6c44.3,42,107.2,42.1,153.3-1c43.5-45.4,39.9-113,0-152.2L198.637,45.325z
		 M74.137,169.025l96.2-95.6l190.4,190.4h-191.8L74.137,169.025z M430.637,429.525c-33.6,28.5-69.9,23.7-95.9,0l-124.1-124h190.8
		c0.3,0,0.7,0,1,0l28.2,28.2C454.637,360.325,458.837,399.825,430.637,429.525z"></path>
    </g>
        <g></g>
        <g></g>
        <g></g>
        <g></g>
        <g></g>
        <g></g>
        <g></g>
        <g></g>
        <g></g>
        <g></g>
        <g></g>
        <g></g>
        <g></g>
        <g></g>
        <g></g>
  </symbol>
    <symbol xmlns="http://www.w3.org/2000/svg" enable-background="new 0 0 24 24" viewBox="0 0 24 24" id="typescript">
        <path d="M23.25,24H0.75C0.336,24,0,23.664,0,23.25V0.75C0,0.336,0.336,0,0.75,0h22.5C23.664,0,24,0.336,24,0.75v22.5C24,23.664,23.664,24,23.25,24z M1.5,22.5h21v-21h-21V22.5z"></path>
        <path d="M13.232,12.5h-7.5c-0.414,0-0.75-0.336-0.75-0.75S5.318,11,5.732,11h7.5c0.414,0,0.75,0.336,0.75,0.75S13.646,12.5,13.232,12.5z"></path>
        <path d="M9.482 22c-.414 0-.75-.336-.75-.75v-9.436c0-.414.336-.75.75-.75s.75.336.75.75v9.436C10.232 21.664 9.896 22 9.482 22zM18.25 22c-1.289 0-2.469-.602-3.08-1.569-.221-.351-.116-.813.234-1.035.349-.22.813-.116 1.034.234.333.528 1.044.87 1.811.87 1.084 0 2-.687 2-1.5 0-.736-.746-1.336-2.218-1.782C15.916 16.575 14.75 15.433 14.75 14c0-1.654 1.57-3 3.5-3 .677 0 1.334.165 1.9.478.363.199.495.656.294 1.019-.199.363-.656.495-1.019.294-.344-.189-.751-.29-1.175-.29-1.084 0-2 .687-2 1.5 0 .965 1.39 1.531 2.218 1.782 2.713.823 3.282 2.204 3.282 3.218C21.75 20.654 20.18 22 18.25 22z"></path>
    </symbol>
    <symbol xmlns="http://www.w3.org/2000/svg" viewBox="0 0 20 20" id="vk">
        <path d="M17.802 12.298s1.617 1.597 2.017 2.336a.127.127 0 0 1 .018.035c.163.273.203.487.123.645-.135.261-.592.392-.747.403h-2.858c-.199 0-.613-.052-1.117-.4-.385-.269-.768-.712-1.139-1.145-.554-.643-1.033-1.201-1.518-1.201a.548.548 0 0 0-.18.03c-.367.116-.833.639-.833 2.032 0 .436-.344.684-.585.684H9.674c-.446 0-2.768-.156-4.827-2.327C2.324 10.732.058 5.4.036 5.353c-.141-.345.155-.533.475-.533h2.886c.387 0 .513.234.601.444.102.241.48 1.205 1.1 2.288 1.004 1.762 1.621 2.479 2.114 2.479a.527.527 0 0 0 .264-.07c.644-.354.524-2.654.494-3.128 0-.092-.001-1.027-.331-1.479-.236-.324-.638-.45-.881-.496.065-.094.203-.238.38-.323.441-.22 1.238-.252 2.029-.252h.439c.858.012 1.08.067 1.392.146.628.15.64.557.585 1.943-.016.396-.033.842-.033 1.367 0 .112-.005.237-.005.364-.019.711-.044 1.512.458 1.841a.41.41 0 0 0 .217.062c.174 0 .695 0 2.108-2.425.62-1.071 1.1-2.334 1.133-2.429.028-.053.112-.202.214-.262a.479.479 0 0 1 .236-.056h3.395c.37 0 .621.056.67.196.082.227-.016.92-1.566 3.016-.261.349-.49.651-.691.915-1.405 1.844-1.405 1.937.083 3.337z"></path>
    </symbol>

    <symbol viewBox="0 0 24 24" id="telegram" xmlns="http://www.w3.org/2000/svg">
        <path d="M16.114,9.291c.552-.552,1.1-1.84-1.2-.276-3.268,2.255-6.489,4.372-6.489,4.372a2.7,2.7,0,0,1-2.117.046c-1.38-.414-2.991-.966-2.991-.966s-1.1-.691.783-1.427c0,0,7.961-3.267,10.722-4.418,1.058-.46,4.647-1.932,4.647-1.932s1.657-.645,1.519.92c-.046.644-.414,2.9-.782,5.338-.553,3.451-1.151,7.225-1.151,7.225s-.092,1.058-.874,1.242a3.787,3.787,0,0,1-2.3-.828c-.184-.138-3.451-2.209-4.648-3.221a.872.872,0,0,1,.046-1.473C12.939,12.375,14.918,10.488,16.114,9.291Z"/>
    </symbol>

    <symbol id="postman" viewBox="0 0 24 24" role="img" xmlns="http://www.w3.org/2000/svg">
        <path d="M13.527.099C6.955-.744.942 3.9.099 10.473c-.843 6.572 3.8 12.584 10.373 13.428 6.573.843 12.587-3.801 13.428-10.374C24.744 6.955 20.101.943 13.527.099zm2.471 7.485a.855.855 0 0 0-.593.25l-4.453 4.453-.307-.307-.643-.643c4.389-4.376 5.18-4.418 5.996-3.753zm-4.863 4.861l4.44-4.44a.62.62 0 1 1 .847.903l-4.699 4.125-.588-.588zm.33.694l-1.1.238a.06.06 0 0 1-.067-.032.06.06 0 0 1 .01-.073l.645-.645.512.512zm-2.803-.459l1.172-1.172.879.878-1.979.426a.074.074 0 0 1-.085-.039.072.072 0 0 1 .013-.093zm-3.646 6.058a.076.076 0 0 1-.069-.083.077.077 0 0 1 .022-.046h.002l.946-.946 1.222 1.222-2.123-.147zm2.425-1.256a.228.228 0 0 0-.117.256l.203.865a.125.125 0 0 1-.211.117h-.003l-.934-.934-.294-.295 3.762-3.758 1.82-.393.874.874c-1.255 1.102-2.971 2.201-5.1 3.268zm5.279-3.428h-.002l-.839-.839 4.699-4.125a.952.952 0 0 0 .119-.127c-.148 1.345-2.029 3.245-3.977 5.091zm3.657-6.46l-.003-.002a1.822 1.822 0 0 1 2.459-2.684l-1.61 1.613a.119.119 0 0 0 0 .169l1.247 1.247a1.817 1.817 0 0 1-2.093-.343zm2.578 0a1.714 1.714 0 0 1-.271.218h-.001l-1.207-1.207 1.533-1.533c.661.72.637 1.832-.054 2.522zM18.855 6.05a.143.143 0 0 0-.053.157.416.416 0 0 1-.053.45.14.14 0 0 0 .023.197.141.141 0 0 0 .084.03.14.14 0 0 0 .106-.05.691.691 0 0 0 .087-.751.138.138 0 0 0-.194-.033z"/>
    </symbol>

    <symbol id="git" viewBox="0 0 15 15" xmlns="http://www.w3.org/2000/svg">
        <path d="M6.79286 1.20708L7.14642 1.56063L7.14642 1.56063L6.79286 1.20708ZM1.20708 6.79287L0.853524 6.43931H0.853524L1.20708 6.79287ZM1.20708 8.20708L1.56063 7.85352L1.56063 7.85352L1.20708 8.20708ZM6.79287 13.7929L6.43931 14.1464L6.79287 13.7929ZM8.20708 13.7929L7.85352 13.4393L8.20708 13.7929ZM13.7929 8.20708L14.1464 8.56063L13.7929 8.20708ZM13.7929 6.79286L13.4393 7.14642L13.7929 6.79286ZM8.20708 1.20708L8.56063 0.853524V0.853524L8.20708 1.20708ZM6.43931 0.853525L0.853524 6.43931L1.56063 7.14642L7.14642 1.56063L6.43931 0.853525ZM0.853525 8.56063L6.43931 14.1464L7.14642 13.4393L1.56063 7.85352L0.853525 8.56063ZM8.56063 14.1464L14.1464 8.56063L13.4393 7.85352L7.85352 13.4393L8.56063 14.1464ZM14.1464 6.43931L8.56063 0.853524L7.85352 1.56063L13.4393 7.14642L14.1464 6.43931ZM14.1464 8.56063C14.7322 7.97484 14.7322 7.0251 14.1464 6.43931L13.4393 7.14642C13.6346 7.34168 13.6346 7.65826 13.4393 7.85352L14.1464 8.56063ZM6.43931 14.1464C7.0251 14.7322 7.97485 14.7322 8.56063 14.1464L7.85352 13.4393C7.65826 13.6346 7.34168 13.6346 7.14642 13.4393L6.43931 14.1464ZM0.853524 6.43931C0.267737 7.0251 0.267739 7.97485 0.853525 8.56063L1.56063 7.85352C1.36537 7.65826 1.36537 7.34168 1.56063 7.14642L0.853524 6.43931ZM7.14642 1.56063C7.34168 1.36537 7.65826 1.36537 7.85352 1.56063L8.56063 0.853524C7.97484 0.267737 7.0251 0.267739 6.43931 0.853525L7.14642 1.56063ZM5.14642 2.85352L6.14642 3.85352L6.85352 3.14642L5.85352 2.14642L5.14642 2.85352ZM7.49997 4.99997C7.22383 4.99997 6.99997 4.77611 6.99997 4.49997H5.99997C5.99997 5.3284 6.67154 5.99997 7.49997 5.99997V4.99997ZM7.99997 4.49997C7.99997 4.77611 7.77611 4.99997 7.49997 4.99997V5.99997C8.3284 5.99997 8.99997 5.3284 8.99997 4.49997H7.99997ZM7.49997 3.99997C7.77611 3.99997 7.99997 4.22383 7.99997 4.49997H8.99997C8.99997 3.67154 8.3284 2.99997 7.49997 2.99997V3.99997ZM7.49997 2.99997C6.67154 2.99997 5.99997 3.67154 5.99997 4.49997H6.99997C6.99997 4.22383 7.22383 3.99997 7.49997 3.99997V2.99997ZM8.14642 5.85352L9.64642 7.35352L10.3535 6.64642L8.85352 5.14642L8.14642 5.85352ZM10.5 7.99997C10.2238 7.99997 9.99997 7.77611 9.99997 7.49997H8.99997C8.99997 8.3284 9.67154 8.99997 10.5 8.99997V7.99997ZM11 7.49997C11 7.77611 10.7761 7.99997 10.5 7.99997V8.99997C11.3284 8.99997 12 8.3284 12 7.49997H11ZM10.5 6.99997C10.7761 6.99997 11 7.22383 11 7.49997H12C12 6.67154 11.3284 5.99997 10.5 5.99997V6.99997ZM10.5 5.99997C9.67154 5.99997 8.99997 6.67154 8.99997 7.49997H9.99997C9.99997 7.22383 10.2238 6.99997 10.5 6.99997V5.99997ZM6.99997 5.49997V9.49997H7.99997V5.49997H6.99997ZM7.49997 11C7.22383 11 6.99997 10.7761 6.99997 10.5H5.99997C5.99997 11.3284 6.67154 12 7.49997 12V11ZM7.99997 10.5C7.99997 10.7761 7.77611 11 7.49997 11V12C8.3284 12 8.99997 11.3284 8.99997 10.5H7.99997ZM7.49997 9.99997C7.77611 9.99997 7.99997 10.2238 7.99997 10.5H8.99997C8.99997 9.67154 8.3284 8.99997 7.49997 8.99997V9.99997ZM7.49997 8.99997C6.67154 8.99997 5.99997 9.67154 5.99997 10.5H6.99997C6.99997 10.2238 7.22383 9.99997 7.49997 9.99997V8.99997Z"/>
    </symbol>

    <symbol id="message2" viewBox="0 0 16 16" xmlns="http://www.w3.org/2000/svg">
        <path d="M15 2.5H1a1 1 0 0 0-1 1v9a1 1 0 0 0 1 1h14a1 1 0 0 0 1-1v-9a1 1 0 0 0-1-1zm-1.3 1.25L8.42 8.56a.62.62 0 0 1-.84 0L2.3 3.75zm-12.45 8.5V4.48l5.49 5a1.86 1.86 0 0 0 2.52 0l5.49-5v7.77z"/>
    </symbol>

    <symbol id="sun" version="1.0" xmlns="http://www.w3.org/2000/svg" xmlns:xlink="http://www.w3.org/1999/xlink"
            viewBox="0 0 64 64" enable-background="new 0 0 64 64" xml:space="preserve">
            <g>
            <circle fill-rule="evenodd" clip-rule="evenodd"  cx="32.003" cy="32.005" r="16.001"/>
                <path fill-rule="evenodd" clip-rule="evenodd"  d="M12.001,31.997c0-2.211-1.789-4-4-4H4c-2.211,0-4,1.789-4,4
            s1.789,4,4,4h4C10.212,35.997,12.001,34.208,12.001,31.997z"/>
                <path fill-rule="evenodd" clip-rule="evenodd"  d="M12.204,46.139l-2.832,2.833c-1.563,1.562-1.563,4.094,0,5.656
            c1.562,1.562,4.094,1.562,5.657,0l2.833-2.832c1.562-1.562,1.562-4.095,0-5.657C16.298,44.576,13.767,44.576,12.204,46.139z"/>
                <path fill-rule="evenodd" clip-rule="evenodd"  d="M32.003,51.999c-2.211,0-4,1.789-4,4V60c0,2.211,1.789,4,4,4
            s4-1.789,4-4l-0.004-4.001C36.003,53.788,34.21,51.999,32.003,51.999z"/>
                <path fill-rule="evenodd" clip-rule="evenodd"  d="M51.798,46.143c-1.559-1.566-4.091-1.566-5.653-0.004
            s-1.562,4.095,0,5.657l2.829,2.828c1.562,1.57,4.094,1.562,5.656,0s1.566-4.09,0-5.656L51.798,46.143z"/>
                <path fill-rule="evenodd" clip-rule="evenodd"  d="M60.006,27.997l-4.009,0.008
            c-2.203-0.008-3.992,1.781-3.992,3.992c-0.008,2.211,1.789,4,3.992,4h4.001c2.219,0.008,4-1.789,4-4
            C64.002,29.79,62.217,27.997,60.006,27.997z"/>
                <path fill-rule="evenodd" clip-rule="evenodd"  d="M51.798,17.859l2.828-2.829c1.574-1.566,1.562-4.094,0-5.657
            c-1.559-1.567-4.09-1.567-5.652-0.004l-2.829,2.836c-1.562,1.555-1.562,4.086,0,5.649C47.699,19.426,50.239,19.418,51.798,17.859z"
                />
                <path fill-rule="evenodd" clip-rule="evenodd"  d="M32.003,11.995c2.207,0.016,4-1.789,4-3.992v-4
            c0-2.219-1.789-4-4-4c-2.211-0.008-4,1.781-4,3.993l0.008,4.008C28.003,10.206,29.792,11.995,32.003,11.995z"/>
                <path fill-rule="evenodd" clip-rule="evenodd"  d="M12.212,17.855c1.555,1.562,4.079,1.562,5.646-0.004
            c1.574-1.551,1.566-4.09,0.008-5.649l-2.829-2.828c-1.57-1.571-4.094-1.559-5.657,0c-1.575,1.559-1.575,4.09-0.012,5.653
            L12.212,17.855z"/>
            </g>
    </symbol>

    <symbol id="moon" viewBox="0 0 24 24" xmlns="http://www.w3.org/2000/svg">
        <path d="M12.0557 3.59974C12.2752 3.2813 12.2913 2.86484 12.0972 2.53033C11.9031 2.19582 11.5335 2.00324 11.1481 2.03579C6.02351 2.46868 2 6.76392 2 12C2 17.5228 6.47715 22 12 22C17.236 22 21.5313 17.9764 21.9642 12.8518C21.9967 12.4664 21.8041 12.0968 21.4696 11.9027C21.1351 11.7086 20.7187 11.7248 20.4002 11.9443C19.4341 12.6102 18.2641 13 17 13C13.6863 13 11 10.3137 11 6.99996C11 5.73589 11.3898 4.56587 12.0557 3.59974Z"/>
    </symbol>
</svg>